<?xml version="1.0" standalone="no"?>
<!DOCTYPE svg PUBLIC "-//W3C//DTD SVG 20010904//EN"
 "http://www.w3.org/TR/2001/REC-SVG-20010904/DTD/svg10.dtd">
<svg version="1.0" xmlns="http://www.w3.org/2000/svg"
 width="451.000000pt" height="451.000000pt" viewBox="0 0 451.000000 451.000000"
 preserveAspectRatio="xMidYMid meet">
<metadata>
Created by potrace 1.14, written by Peter Selinger 2001-2017
</metadata>
<g transform="translate(0.000000,451.000000) scale(0.100000,-0.100000)"
fill="#000000" stroke="none">
<path d="M636 3000 c-25 -33 -57 -91 -72 -128 l-28 -67 -55 53 c-76 72 -201
156 -214 143 -19 -19 -20 -200 -3 -284 16 -76 50 -178 79 -233 42 -81 186
-230 213 -220 7 3 17 -8 24 -25 7 -16 16 -29 20 -29 5 0 29 24 55 53 28 30 37
37 23 17 -14 -19 -30 -45 -36 -57 -10 -19 -9 -20 8 -16 16 4 19 2 14 -11 -3
-9 -5 -16 -3 -16 2 0 29 -9 59 -20 50 -18 51 -19 15 -13 -87 13 -207 76 -260
137 -16 18 -67 56 -76 56 -4 0 -1 -20 8 -45 14 -44 30 -64 20 -26 -2 11 18 -3
51 -35 33 -31 82 -65 119 -81 34 -15 63 -31 63 -34 0 -4 -17 -9 -37 -13 -60
-10 -134 -49 -182 -97 -24 -24 -41 -39 -38 -34 3 6 1 32 -4 57 -13 59 -59 103
-164 154 -70 34 -125 83 -125 111 0 14 -31 26 -41 16 -13 -14 -49 -144 -49
-178 0 -98 51 -161 185 -230 42 -21 89 -54 105 -73 l28 -34 15 22 c11 16 14
36 10 65 -4 33 -1 44 12 49 14 5 16 1 9 -27 -34 -153 35 -274 208 -361 40 -20
97 -41 127 -46 137 -25 356 -3 676 70 454 103 581 127 885 167 187 25 603 24
740 -1 270 -49 465 -136 606 -268 18 -17 40 -28 50 -26 14 2 8 13 -32 50 -101
96 -226 175 -347 219 -440 163 -1088 133 -2017 -92 -215 -52 -215 -52 -385
-53 -154 -1 -177 1 -244 23 -91 30 -149 72 -178 130 -62 122 -27 237 94 308
48 28 168 63 217 63 35 0 61 13 53 27 -3 4 45 9 106 9 179 2 326 59 447 173
l64 60 -22 24 c-24 25 -155 72 -235 83 -26 3 -46 9 -45 13 2 3 29 58 61 121
60 121 66 143 43 166 -40 40 -269 -24 -388 -107 -14 -11 -28 -19 -31 -19 -2 0
-7 38 -10 83 -10 126 -61 269 -114 322 -23 23 -30 19 -77 -45z m407 -605 c-3
-9 -8 -14 -10 -11 -3 3 -2 9 2 15 9 16 15 13 8 -4z m-23 -19 c0 -2 -8 -10 -17
-17 -16 -13 -17 -12 -4 4 13 16 21 21 21 13z m-40 -31 c0 -2 -10 -9 -22 -15
-22 -11 -22 -10 -4 4 21 17 26 19 26 11z m216 -140 c-11 -8 -25 -15 -30 -15
-6 1 0 7 14 15 32 19 40 18 16 0z m-56 -25 c-8 -5 -22 -9 -30 -9 -10 0 -8 3 5
9 27 12 43 12 25 0z m-65 -20 c-27 -12 -43 -12 -25 0 8 5 22 9 30 9 10 0 8 -3
-5 -9z m-1028 -47 c-3 -10 -5 -4 -5 12 0 17 2 24 5 18 2 -7 2 -21 0 -30z m960
31 c-3 -3 -12 -4 -19 -1 -8 3 -5 6 6 6 11 1 17 -2 13 -5z m-672 -124 c10 -11
16 -20 13 -20 -3 0 -13 9 -23 20 -10 11 -16 20 -13 20 3 0 13 -9 23 -20z"/>
<path d="M1383 2783 c-7 -2 -13 -11 -13 -20 0 -10 -6 -12 -20 -8 -14 5 -22 1
-26 -12 -3 -10 -10 -27 -14 -38 -17 -41 -19 -66 -4 -72 8 -3 17 -22 20 -42 7
-40 33 -65 79 -75 50 -11 79 30 94 132 7 46 11 85 9 86 -43 28 -59 34 -77 29
-15 -4 -21 -1 -21 11 0 16 -5 18 -27 9z"/>
<path d="M1553 2526 c-12 -15 -29 -69 -43 -133 -36 -177 -41 -191 -80 -211
-66 -33 -53 -116 18 -114 67 2 76 17 117 206 28 130 30 136 51 136 8 0 14 5
14 10 0 6 -7 10 -15 10 -19 0 -19 29 1 55 15 20 15 20 30 1 21 -29 41 -6 28
31 -8 24 -15 28 -56 31 -39 3 -49 -1 -65 -22z m-93 -368 c0 -22 -17 -41 -30
-33 -8 5 -7 12 6 26 20 22 24 23 24 7z"/>
<path d="M3084 2536 c-68 -30 -115 -138 -94 -216 20 -74 68 -96 142 -65 15 6
15 2 1 -52 -8 -32 -19 -64 -25 -70 -15 -18 -45 -16 -52 3 -9 22 12 45 38 42
15 -2 21 2 21 17 0 16 -8 21 -36 23 -46 4 -69 -18 -69 -63 0 -42 29 -65 83
-65 61 0 90 36 115 145 38 166 37 155 5 155 -23 0 -32 -8 -52 -45 -42 -80 -97
-67 -95 23 1 50 18 92 54 130 40 42 101 17 71 -30 -9 -15 -9 -20 3 -24 33 -12
51 0 54 38 2 28 -2 40 -20 52 -27 19 -101 20 -144 2z"/>
<path d="M1744 2523 c-24 -4 -29 -20 -59 -174 -22 -115 -18 -151 18 -163 35
-13 86 12 110 54 22 36 4 51 -24 21 -46 -49 -48 -26 -14 133 14 64 25 120 25
126 0 10 -16 11 -56 3z"/>
<path d="M3388 2523 c-24 -4 -28 -11 -47 -96 -34 -150 -51 -228 -51 -233 0 -3
17 -4 38 -2 l37 3 17 79 c16 79 39 119 57 101 6 -6 7 -25 1 -50 -13 -56 -12
-109 2 -123 33 -33 107 -2 124 51 9 28 -6 35 -23 10 -9 -13 -22 -23 -29 -23
-17 0 -18 23 -2 89 9 39 9 57 -1 77 -10 23 -16 26 -55 22 l-43 -3 8 35 c11 44
11 70 2 69 -5 -1 -20 -4 -35 -6z"/>
<path d="M1931 2422 c-46 -23 -76 -82 -76 -151 0 -46 4 -56 27 -74 53 -40 135
4 160 86 9 30 20 43 45 54 31 13 52 37 41 49 -3 2 -18 -2 -34 -11 -28 -14 -29
-14 -42 13 -28 55 -62 65 -121 34z m64 -76 c-2 -56 -27 -110 -48 -103 -19 6
-20 45 -2 90 33 83 53 88 50 13z"/>
<path d="M2309 2432 l-36 -3 -12 -72 c-13 -75 -37 -125 -51 -111 -5 5 -1 48 9
97 l18 87 -38 0 c-43 0 -44 -2 -70 -137 -10 -55 -9 -66 5 -88 18 -28 48 -32
87 -11 22 11 29 11 45 -1 26 -20 82 -8 116 24 31 29 56 98 60 158 2 50 -6 65
-37 65 -31 0 -39 -26 -15 -50 20 -20 20 -20 -1 -75 -19 -52 -51 -86 -63 -66
-3 5 3 48 13 95 10 48 15 88 12 89 -3 1 -22 1 -42 -1z"/>
<path d="M2590 2433 c-52 -19 -90 -87 -93 -166 -2 -53 13 -74 59 -83 44 -8 82
8 125 52 32 34 34 59 1 36 -41 -28 -72 -41 -86 -36 -22 8 -20 43 2 50 60 20
100 72 88 119 -7 29 -54 43 -96 28z m50 -51 c0 -10 -10 -29 -22 -42 -19 -21
-23 -22 -26 -8 -4 18 25 68 39 68 5 0 9 -8 9 -18z"/>
<path d="M2775 2429 c-3 -4 -16 -59 -29 -121 l-23 -113 29 -3 c17 -2 36 -1 42
1 7 3 19 39 26 81 15 86 31 118 51 99 29 -29 76 -2 64 36 -7 24 -29 33 -57 22
-12 -4 -39 -5 -60 -1 -21 4 -41 4 -43 -1z"/>
<path d="M3674 2418 c-54 -25 -91 -168 -55 -211 17 -22 84 -22 101 -2 12 14
15 14 30 0 27 -24 68 -18 101 14 16 16 29 37 29 45 0 22 -13 20 -28 -4 -17
-27 -42 -26 -42 3 1 12 7 49 15 82 8 33 15 65 15 72 0 15 -135 16 -166 1z m77
-64 c-6 -67 -24 -109 -49 -112 -19 -3 -22 1 -22 32 0 41 15 84 37 109 25 27
38 15 34 -29z"/>
<path d="M3950 2426 c0 -2 -11 -54 -25 -116 -14 -62 -25 -115 -25 -117 0 -1
17 -3 39 -3 l38 0 13 76 c13 78 40 127 59 109 6 -7 6 -30 -2 -70 -16 -76 -12
-100 18 -113 45 -21 115 24 115 73 0 21 -17 19 -30 -5 -6 -11 -18 -20 -27 -20
-13 0 -14 7 -9 40 3 22 9 58 12 80 10 60 -3 69 -97 69 -43 0 -79 -2 -79 -3z"/>
<path d="M4274 2411 c-51 -41 -79 -152 -50 -196 13 -20 25 -25 55 -25 22 0 44
6 51 15 12 14 15 14 30 0 27 -24 68 -18 101 14 28 29 39 61 19 61 -5 0 -14 -9
-20 -20 -15 -27 -40 -26 -40 3 1 12 7 49 15 82 21 88 25 84 -62 84 -60 0 -83
-4 -99 -18z m90 -20 c8 -13 -14 -113 -29 -135 -18 -24 -45 -14 -45 16 0 70 53
154 74 119z"/>
</g>
</svg>
